<svg width="425" height="456" viewBox="0 0 425 456" fill="none" xmlns="http://www.w3.org/2000/svg">
<path fill-rule="evenodd" clip-rule="evenodd" d="M249.862 76.875C277.311 43.0199 424.235 0.555542 424.235 0.555542C424.235 0.555542 399.261 169.895 377.29 196.974C360.926 217.15 308.784 204.546 283.235 196.797C302.332 165.23 324.468 134.396 343.929 109.921C345.914 107.371 346.886 104.079 346.633 100.762C346.381 97.4436 344.924 94.367 342.579 92.1996C340.234 90.0323 337.191 88.9491 334.11 89.1854C331.029 89.4216 328.158 90.9581 326.122 93.4613C306.497 118.138 283.751 149.718 263.833 182.549C252.642 160.097 228.137 103.651 249.862 76.875ZM59.3585 303.963H0.706055V455.666H59.3585V429.839C71.3236 429.308 88.9897 428.625 95.1013 428.89C116.064 429.813 131.7 435.199 147.537 440.647C162.294 445.717 177.203 450.849 196.711 452.455C201.614 452.86 206.389 453.378 211.022 453.871C227.715 455.691 242.53 457.31 254.777 452.455C270.402 446.26 359.718 399.144 370.885 386.742C382.053 374.353 376.469 340.877 341.852 347.072C324.773 350.131 304.983 358.93 287.024 366.907C268.595 375.086 252.102 382.419 242.483 381.786C223.503 380.548 173.273 370.636 173.273 370.636L230.952 371.395C230.952 371.395 239.105 371.85 250.307 363.19C261.51 354.53 271.516 329.714 254.765 329.714C238.026 329.714 220.16 323.52 220.16 323.52L148.698 306.162C148.698 306.162 124.134 301.207 114.093 306.162C105.811 310.246 71.3002 323.57 59.3585 328.159V303.963ZM34.4664 46.9515C34.4664 46.9515 155.701 81.995 178.364 109.921C195.878 131.501 177.004 176.443 167.502 195.785C155.046 174.711 141.601 154.335 127.219 134.737C126.265 133.434 125.082 132.346 123.737 131.536C122.393 130.725 120.914 130.208 119.384 130.014C117.854 129.82 116.303 129.952 114.821 130.403C113.339 130.855 111.953 131.617 110.744 132.645C109.535 133.674 108.525 134.949 107.773 136.398C107.021 137.846 106.541 139.441 106.361 141.09C106.181 142.738 106.304 144.409 106.723 146.007C107.141 147.604 107.848 149.097 108.803 150.401C122.782 169.45 135.843 189.26 147.935 209.755C126.023 216.152 86.1158 224.963 73.2122 209.047C55.0769 186.696 34.4664 46.9389 34.4664 46.9389V46.9515Z" fill="#6EBC52"/>
</svg>
