<svg width="21" height="15" viewBox="0 0 21 15" fill="none" xmlns="http://www.w3.org/2000/svg">
<path fill-rule="evenodd" clip-rule="evenodd" d="M1.10269 2.93897C0.898206 3.06683 0.720407 3.23459 0.579461 3.43265C0.438515 3.63071 0.337186 3.8552 0.281267 4.09328C0.225349 4.33135 0.215936 4.57835 0.25357 4.82015C0.291203 5.06194 0.375145 5.29379 0.500593 5.50244C2.17734 8.29318 3.60231 11.0634 4.55107 13.5803C4.72479 14.0415 5.07084 14.4134 5.51309 14.6141C5.95534 14.8149 6.45757 14.828 6.90929 14.6506C7.361 14.4732 7.72521 14.1199 7.92179 13.6683C8.11836 13.2167 8.13121 12.7039 7.95749 12.2427C6.9029 9.44077 5.35569 6.45814 3.61143 3.55376C3.35856 3.13259 2.9522 2.83122 2.48174 2.71593C2.01127 2.60064 1.51523 2.68087 1.10269 2.93897ZM20.1034 1.1617C20.4938 1.45331 20.7548 1.89127 20.8291 2.3793C20.9033 2.86733 20.7847 3.36549 20.4994 3.76428C18.3884 6.71337 16.5292 10.6573 15.221 13.6679C15.1237 13.8915 14.9842 14.0933 14.8106 14.2619C14.6369 14.4305 14.4324 14.5625 14.2087 14.6504C13.9851 14.7382 13.7467 14.7803 13.5071 14.7741C13.2676 14.7679 13.0316 14.7136 12.8126 14.6143C12.5936 14.5149 12.3959 14.3725 12.2308 14.1952C12.0657 14.0179 11.9364 13.8091 11.8504 13.5807C11.7643 13.3524 11.7231 13.1089 11.7292 12.8643C11.7352 12.6197 11.7884 12.3787 11.8857 12.1551C13.2067 9.11847 15.1954 4.85971 17.5546 1.56596C17.8402 1.16736 18.2691 0.90087 18.747 0.825063C19.225 0.749256 19.7129 0.87034 20.1034 1.1617Z" fill="white"/>
</svg>
