<svg width="23" height="17" viewBox="0 0 23 17" fill="none" xmlns="http://www.w3.org/2000/svg">
<path fill-rule="evenodd" clip-rule="evenodd" d="M1.57926 2.81505C1.36275 2.96052 1.17449 3.15139 1.02525 3.37675C0.876017 3.6021 0.768728 3.85751 0.70952 4.12839C0.650312 4.39927 0.640346 4.6803 0.680193 4.95541C0.72004 5.23052 0.808919 5.49431 0.941747 5.7317C2.71713 8.90695 4.22592 12.0589 5.23049 14.9225C5.41442 15.4473 5.78083 15.8704 6.2491 16.0988C6.71736 16.3272 7.24913 16.3421 7.72742 16.1403C8.20571 15.9385 8.59134 15.5364 8.79948 15.0226C9.00762 14.5089 9.02122 13.9254 8.83728 13.4006C7.72066 10.2127 6.08244 6.81908 4.23558 3.51454C3.96783 3.03535 3.53757 2.69246 3.03943 2.56128C2.54129 2.43011 2.01607 2.52139 1.57926 2.81505ZM21.6977 0.792907C22.111 1.1247 22.3874 1.623 22.466 2.17827C22.5446 2.73354 22.4191 3.30033 22.1169 3.75406C19.8818 7.10948 17.9132 11.5968 16.528 15.0222C16.425 15.2766 16.2774 15.5062 16.0935 15.698C15.9096 15.8898 15.6931 16.04 15.4563 16.14C15.2195 16.24 14.967 16.2878 14.7134 16.2808C14.4597 16.2737 14.2099 16.2119 13.978 16.0989C13.7461 15.9859 13.5368 15.8239 13.362 15.6221C13.1872 15.4204 13.0503 15.1828 12.9591 14.923C12.868 14.6632 12.8244 14.3862 12.8308 14.1079C12.8373 13.8296 12.8936 13.5554 12.9966 13.301C14.3953 9.84595 16.501 5.00042 18.9989 1.25287C19.3013 0.799354 19.7554 0.496144 20.2615 0.409892C20.7676 0.323641 21.2842 0.461409 21.6977 0.792907Z" fill="white"/>
</svg>
