<svg width="61" height="60" viewBox="0 0 61 60" fill="none" xmlns="http://www.w3.org/2000/svg">
<ellipse cx="30.5" cy="30" rx="30.5" ry="30" fill="#6EBC52"/>
<path d="M31.525 38.7875C31.3494 38.6117 31.2508 38.3734 31.2508 38.125C31.2508 37.8766 31.3494 37.6383 31.525 37.4625L37.7375 31.25H19.6875C19.4389 31.25 19.2004 31.1512 19.0246 30.9754C18.8488 30.7996 18.75 30.5611 18.75 30.3125C18.75 30.0639 18.8488 29.8254 19.0246 29.6496C19.2004 29.4738 19.4389 29.375 19.6875 29.375H37.7375L31.525 23.1625C31.4016 23.0479 31.3114 22.9022 31.2639 22.7406C31.2163 22.579 31.2133 22.4076 31.255 22.2445C31.2967 22.0813 31.3817 21.9325 31.5009 21.8135C31.6201 21.6946 31.7692 21.61 31.9325 21.5687C32.0955 21.527 32.2667 21.5299 32.4281 21.5772C32.5896 21.6245 32.7353 21.7144 32.85 21.8375L40.6625 29.65C40.8381 29.8258 40.9367 30.0641 40.9367 30.3125C40.9367 30.5609 40.8381 30.7992 40.6625 30.975L32.85 38.7875C32.6742 38.9631 32.4359 39.0617 32.1875 39.0617C31.9391 39.0617 31.7008 38.9631 31.525 38.7875Z" fill="white"/>
</svg>
