<svg width="69" height="68" viewBox="0 0 69 68" fill="none" xmlns="http://www.w3.org/2000/svg">
<g filter="url(#filter0_d_125_75)">
<ellipse cx="34.5" cy="30" rx="30.5" ry="30" fill="#6EBC52"/>
<path d="M35.525 38.7875C35.3494 38.6117 35.2508 38.3734 35.2508 38.125C35.2508 37.8766 35.3494 37.6383 35.525 37.4625L41.7375 31.25H23.6875C23.4389 31.25 23.2004 31.1512 23.0246 30.9754C22.8488 30.7996 22.75 30.5611 22.75 30.3125C22.75 30.0639 22.8488 29.8254 23.0246 29.6496C23.2004 29.4738 23.4389 29.375 23.6875 29.375H41.7375L35.525 23.1625C35.4016 23.0479 35.3114 22.9022 35.2639 22.7406C35.2163 22.579 35.2133 22.4076 35.255 22.2445C35.2967 22.0813 35.3817 21.9325 35.5009 21.8135C35.6201 21.6946 35.7692 21.61 35.9325 21.5687C36.0955 21.527 36.2667 21.5299 36.4281 21.5772C36.5896 21.6245 36.7353 21.7144 36.85 21.8375L44.6625 29.65C44.8381 29.8258 44.9367 30.0641 44.9367 30.3125C44.9367 30.5609 44.8381 30.7992 44.6625 30.975L36.85 38.7875C36.6742 38.9631 36.4359 39.0617 36.1875 39.0617C35.9391 39.0617 35.7008 38.9631 35.525 38.7875Z" fill="white"/>
</g>
<defs>
<filter id="filter0_d_125_75" x="0" y="0" width="69" height="68" filterUnits="userSpaceOnUse" color-interpolation-filters="sRGB">
<feFlood flood-opacity="0" result="BackgroundImageFix"/>
<feColorMatrix in="SourceAlpha" type="matrix" values="0 0 0 0 0 0 0 0 0 0 0 0 0 0 0 0 0 0 127 0" result="hardAlpha"/>
<feOffset dy="4"/>
<feGaussianBlur stdDeviation="2"/>
<feComposite in2="hardAlpha" operator="out"/>
<feColorMatrix type="matrix" values="0 0 0 0 0 0 0 0 0 0 0 0 0 0 0 0 0 0 0.25 0"/>
<feBlend mode="normal" in2="BackgroundImageFix" result="effect1_dropShadow_125_75"/>
<feBlend mode="normal" in="SourceGraphic" in2="effect1_dropShadow_125_75" result="shape"/>
</filter>
</defs>
</svg>
