<svg width="66" height="68" viewBox="0 0 66 68" fill="none" xmlns="http://www.w3.org/2000/svg">
<path fill-rule="evenodd" clip-rule="evenodd" d="M38.8157 12.0064C43.0851 7.01739 65.9375 0.759644 65.9375 0.759644C65.9375 0.759644 62.0531 25.7142 58.6357 29.7047C56.0905 32.6781 47.9804 30.8207 44.0065 29.6787C46.9769 25.0268 50.4198 20.483 53.4467 16.8763C53.7555 16.5004 53.9067 16.0154 53.8674 15.5265C53.8281 15.0375 53.6015 14.5841 53.2368 14.2647C52.8721 13.9454 52.3988 13.7857 51.9195 13.8205C51.4403 13.8554 50.9938 14.0818 50.6771 14.4507C47.6246 18.0872 44.0868 22.7409 40.9887 27.5791C39.2481 24.2704 35.4367 15.9522 38.8157 12.0064ZM9.1852 45.4711H0.0625V67.8269H9.1852V64.0208C11.0462 63.9426 13.794 63.842 14.7446 63.8811C18.005 64.0171 20.4371 64.8107 22.9003 65.6136C25.1955 66.3607 27.5145 67.1171 30.5487 67.3537C31.3114 67.4133 32.054 67.4897 32.7747 67.5623C35.371 67.8306 37.6754 68.069 39.5802 67.3537C42.0105 66.4408 55.9025 59.4975 57.6395 57.6699C59.3765 55.8442 58.508 50.911 53.1238 51.8239C50.4672 52.2747 47.3892 53.5714 44.5959 54.7469C41.7295 55.9522 39.1642 57.0328 37.6681 56.9396C34.716 56.757 26.9033 55.2965 26.9033 55.2965L35.8746 55.4082C35.8746 55.4082 37.1426 55.4753 38.8851 54.1992C40.6275 52.923 42.1838 49.266 39.5784 49.266C36.9748 49.266 34.196 48.3532 34.196 48.3532L23.0809 45.7953C23.0809 45.7953 19.2603 45.065 17.6985 45.7953C16.4104 46.397 11.0426 48.3606 9.1852 49.0369V45.4711ZM5.31353 7.59677C5.31353 7.59677 24.1701 12.761 27.6952 16.8763C30.4192 20.0564 27.4835 26.6793 26.0056 29.5296C24.0683 26.424 21.9771 23.4213 19.7402 20.5333C19.5917 20.3412 19.4077 20.1809 19.1986 20.0615C18.9895 19.9421 18.7594 19.8659 18.5214 19.8372C18.2835 19.8086 18.0423 19.8281 17.8117 19.8946C17.5812 19.9612 17.3657 20.0734 17.1776 20.225C16.9895 20.3765 16.8325 20.5644 16.7155 20.778C16.5986 20.9915 16.5239 21.2264 16.4959 21.4694C16.4678 21.7124 16.487 21.9586 16.5521 22.194C16.6173 22.4295 16.7272 22.6495 16.8756 22.8415C19.05 25.6487 21.0815 28.5681 22.9623 31.5882C19.5541 32.5309 13.347 33.8294 11.34 31.4839C8.51924 28.1901 5.31353 7.59491 5.31353 7.59491V7.59677Z" fill="white"/>
</svg>
