<svg width="126" height="84" viewBox="0 0 126 84" fill="none" xmlns="http://www.w3.org/2000/svg">
<path fill-rule="evenodd" clip-rule="evenodd" d="M5.9749 13.0299C4.73325 13.7925 3.65363 14.793 2.79779 15.9743C1.94196 17.1556 1.32668 18.4945 0.987131 19.9144C0.647585 21.3343 0.590434 22.8075 0.818948 24.2496C1.04746 25.6916 1.55716 27.0744 2.3189 28.3188C12.5003 44.9633 21.1528 61.4854 26.9138 76.4965C27.9687 79.2474 30.0699 81.4654 32.7553 82.6625C35.4407 83.8596 38.4903 83.9378 41.2332 82.8799C43.976 81.822 46.1876 79.7146 47.3812 77.0214C48.5748 74.3281 48.6528 71.2697 47.5979 68.5188C41.1944 51.8077 31.7996 34.0188 21.2082 16.6966C19.6728 14.1847 17.2053 12.3873 14.3486 11.6997C11.4919 11.0121 8.47988 11.4906 5.9749 13.0299ZM121.349 2.42998C123.72 4.16922 125.305 6.78126 125.755 9.69194C126.206 12.6026 125.486 15.5737 123.754 17.9522C110.935 35.541 99.6461 59.0632 91.7026 77.0188C91.1119 78.3524 90.2651 79.5563 89.2105 80.5617C88.1559 81.5671 86.9142 82.3544 85.5562 82.8785C84.1983 83.4027 82.7507 83.6534 81.2961 83.6165C79.8415 83.5795 78.4084 83.2556 77.0786 82.6632C75.7488 82.0708 74.5485 81.2215 73.546 80.1638C72.5435 79.1062 71.7585 77.8608 71.2359 76.4989C70.7133 75.137 70.4632 73.6851 70.5001 72.2263C70.5369 70.7675 70.8599 69.3302 71.4506 67.9966C79.4716 49.8855 91.5475 24.4855 105.872 4.84107C107.607 2.46377 110.211 0.874366 113.113 0.42224C116.016 -0.0298851 118.978 0.692285 121.349 2.42998Z" fill="#6EBC52"/>
</svg>
