<svg width="70" height="77" viewBox="0 0 70 77" fill="none" xmlns="http://www.w3.org/2000/svg">
<path fill-rule="evenodd" clip-rule="evenodd" d="M41.1578 13.4117C45.6784 7.73528 69.875 0.615356 69.875 0.615356C69.875 0.615356 65.7621 29.0081 62.1437 33.5484C59.4487 36.9314 50.8616 34.8181 46.654 33.5188C49.7991 28.226 53.4445 23.0561 56.6494 18.9525C56.9764 18.5249 57.1365 17.973 57.0949 17.4167C57.0533 16.8604 56.8134 16.3446 56.4272 15.9812C56.0411 15.6178 55.5399 15.4362 55.0324 15.4758C54.525 15.5154 54.0523 15.773 53.7169 16.1927C50.4849 20.3303 46.739 25.6252 43.4587 31.1299C41.6157 27.3654 37.58 17.9011 41.1578 13.4117ZM9.78433 51.4871H0.125V76.923H9.78433V72.5925C11.7548 72.5035 14.6642 72.389 15.6707 72.4335C19.123 72.5883 21.6981 73.4912 24.3062 74.4048C26.7364 75.2548 29.1918 76.1154 32.4045 76.3846C33.2121 76.4524 33.9983 76.5393 34.7614 76.622C37.5105 76.9272 39.9504 77.1985 41.9673 76.3846C44.5405 75.3459 59.2497 67.446 61.0889 65.3666C62.928 63.2893 62.0084 57.6765 56.3075 58.7151C53.4947 59.2281 50.2357 60.7033 47.278 62.0408C44.243 63.4123 41.5268 64.6417 39.9427 64.5357C36.8169 64.328 28.5447 62.6661 28.5447 62.6661L38.0437 62.7933C38.0437 62.7933 39.3863 62.8696 41.2312 61.4177C43.0762 59.9657 44.724 55.8048 41.9653 55.8048C39.2086 55.8048 36.2663 54.7662 36.2663 54.7662L24.4974 51.8559C24.4974 51.8559 20.4521 51.025 18.7984 51.8559C17.4345 52.5406 11.751 54.7747 9.78433 55.5441V51.4871ZM5.68491 8.39449C5.68491 8.39449 25.6507 14.2702 29.3831 18.9525C32.2674 22.5707 29.159 30.1061 27.5942 33.3492C25.5429 29.8157 23.3287 26.3993 20.9602 23.1134C20.803 22.8949 20.6082 22.7125 20.3867 22.5766C20.1653 22.4407 19.9217 22.354 19.6697 22.3214C19.4178 22.2888 19.1624 22.311 18.9183 22.3867C18.6742 22.4624 18.446 22.5901 18.2469 22.7626C18.0477 22.935 17.8815 23.1488 17.7576 23.3917C17.6338 23.6347 17.5547 23.902 17.5251 24.1784C17.4954 24.4549 17.5156 24.735 17.5846 25.0029C17.6536 25.2708 17.77 25.5211 17.9271 25.7396C20.2294 28.9335 22.3804 32.2552 24.3718 35.6914C20.7631 36.764 14.1909 38.2414 12.0659 35.5727C9.0792 31.8252 5.68491 8.39237 5.68491 8.39237V8.39449Z" fill="white"/>
</svg>
