<svg width="134" height="95" viewBox="0 0 134 95" fill="none" xmlns="http://www.w3.org/2000/svg">
<path fill-rule="evenodd" clip-rule="evenodd" d="M6.26771 14.563C4.95303 15.4306 3.8099 16.569 2.90372 17.913C1.99754 19.257 1.34607 20.7804 0.986546 22.396C0.627027 24.0115 0.566514 25.6876 0.80847 27.3284C1.05043 28.9692 1.59011 30.5425 2.39665 31.9583C13.177 50.896 22.3385 69.6946 28.4383 86.7739C29.5552 89.9037 31.7801 92.4273 34.6234 93.7893C37.4668 95.1514 40.6958 95.2403 43.6 94.0367C46.5042 92.833 48.8458 90.4353 50.1097 87.371C51.3735 84.3067 51.4561 80.8268 50.3392 77.697C43.5589 58.6834 33.6115 38.4436 22.3971 18.7348C20.7713 15.8768 18.1587 13.8318 15.134 13.0494C12.1093 12.2671 8.92004 12.8115 6.26771 14.563ZM128.429 2.50258C130.939 4.48145 132.617 7.45337 133.094 10.7651C133.572 14.0768 132.809 17.4573 130.975 20.1634C117.402 40.1756 105.449 66.9386 97.0382 87.368C96.4128 88.8854 95.5162 90.2552 94.3996 91.3991C93.2829 92.5431 91.9682 93.4388 90.5303 94.0352C89.0925 94.6315 87.5597 94.9168 86.0195 94.8748C84.4794 94.8327 82.962 94.4642 81.554 93.7901C80.146 93.1161 78.875 92.1498 77.8135 90.9464C76.7521 89.743 75.9209 88.3261 75.3676 86.7765C74.8142 85.227 74.5495 83.5751 74.5885 81.9153C74.6275 80.2555 74.9695 78.6202 75.5949 77.1028C84.0878 56.4964 96.874 27.5969 112.042 5.24587C113.878 2.54103 116.635 0.732638 119.708 0.218219C122.781 -0.296199 125.918 0.52547 128.429 2.50258Z" fill="#6EBC52"/>
</svg>
