<svg width="400" height="400" viewBox="0 0 400 400" fill="none" xmlns="http://www.w3.org/2000/svg">
<path fill-rule="evenodd" clip-rule="evenodd" d="M235.314 67.0777C261.238 37.3222 400 0 400 0C400 0 376.413 148.833 355.663 172.633C340.208 190.366 290.962 179.289 266.833 172.478C284.869 144.733 305.775 117.633 324.155 96.1221C326.03 93.8806 326.948 90.9878 326.709 88.0716C326.47 85.1555 325.095 82.4515 322.88 80.5466C320.666 78.6417 317.791 77.6897 314.881 77.8973C311.971 78.1049 309.26 79.4554 307.337 81.6555C288.802 103.344 267.32 131.1 248.509 159.955C237.939 140.222 214.796 90.611 235.314 67.0777ZM55.394 266.666H0V400H55.394V377.3C66.6944 376.833 83.379 376.233 89.1511 376.466C108.949 377.277 123.717 382.011 138.673 386.8C152.61 391.255 166.692 395.766 185.116 397.177C189.747 397.533 194.256 397.988 198.632 398.422C214.397 400.022 228.389 401.444 239.956 397.177C254.713 391.733 339.067 350.322 349.614 339.422C360.161 328.533 354.887 299.111 322.194 304.555C306.063 307.244 287.373 314.977 270.411 321.988C253.007 329.177 237.43 335.622 228.345 335.066C210.42 333.977 162.98 325.266 162.98 325.266L217.455 325.933C217.455 325.933 225.154 326.333 235.735 318.722C246.315 311.111 255.765 289.3 239.945 289.3C224.135 289.3 207.262 283.855 207.262 283.855L139.77 268.6C139.77 268.6 116.571 264.244 107.088 268.6C99.266 272.189 66.6722 283.9 55.394 287.933V266.666ZM31.8848 40.7777C31.8848 40.7777 146.384 71.5777 167.788 96.1221C184.329 115.089 166.503 154.589 157.529 171.589C145.766 153.066 133.068 135.158 119.485 117.933C118.584 116.788 117.466 115.832 116.196 115.119C114.927 114.407 113.529 113.952 112.084 113.782C110.64 113.611 109.175 113.727 107.775 114.124C106.375 114.521 105.067 115.19 103.925 116.094C102.783 116.998 101.829 118.119 101.119 119.392C100.409 120.666 99.9555 122.067 99.7853 123.516C99.615 124.965 99.731 126.434 100.127 127.838C100.522 129.242 101.19 130.554 102.091 131.7C115.294 148.442 127.63 165.854 139.05 183.866C118.355 189.489 80.6647 197.233 68.4781 183.244C51.3502 163.6 31.8848 40.7666 31.8848 40.7666V40.7777Z" fill="#6EBC52"/>
</svg>
